<?xml version="1.0" standalone="no"?>
<!DOCTYPE svg PUBLIC "-//W3C//DTD SVG 20010904//EN"
 "http://www.w3.org/TR/2001/REC-SVG-20010904/DTD/svg10.dtd">
<svg version="1.0" xmlns="http://www.w3.org/2000/svg"
 width="300.000000pt" height="253.000000pt" viewBox="0 0 300.000000 253.000000"
 preserveAspectRatio="xMidYMid meet">
<metadata>
Created by potrace 1.10, written by Peter Selinger 2001-2011
</metadata>
<g transform="translate(0.000000,253.000000) scale(0.100000,-0.100000)"
fill="#000000" stroke="none">
<path d="M212 2508 c-17 -36 -25 -81 -12 -73 5 3 10 18 10 32 0 15 7 35 17 45
9 10 12 18 6 18 -5 0 -15 -10 -21 -22z"/>
<path d="M1311 2523 c1 -5 1 -10 -1 -13 -1 -3 -3 -23 -5 -45 -1 -22 -1 -30 2
-17 2 12 9 22 15 22 7 0 6 5 -1 14 -10 12 -8 15 9 18 l21 3 -21 13 c-11 7 -20
9 -19 5z"/>
<path d="M940 2503 c-17 -7 -40 -29 -40 -37 0 -4 8 -2 18 3 9 5 25 12 35 15 9
3 17 10 17 16 0 11 -7 12 -30 3z"/>
<path d="M538 2470 c-17 -30 -14 -37 11 -21 7 5 11 14 7 20 -5 7 -1 8 11 4 16
-6 16 -5 4 10 -7 9 -14 17 -15 17 0 0 -9 -14 -18 -30z"/>
<path d="M332 2430 c-23 -21 -25 -34 -14 -61 6 -14 9 -14 26 2 18 17 18 18 -3
12 -27 -7 -27 5 1 34 27 29 19 40 -10 13z"/>
<path d="M580 2420 c0 -5 -6 -10 -14 -10 -7 0 -19 -7 -26 -15 -21 -26 8 -18
38 10 15 14 21 25 14 25 -6 0 -12 -4 -12 -10z"/>
<path d="M872 2390 c-13 -37 1 -49 17 -14 13 30 14 44 2 44 -5 0 -14 -13 -19
-30z"/>
<path d="M220 2395 c-6 -8 -9 -18 -6 -24 3 -5 1 -11 -6 -13 -7 -3 -5 -7 6 -11
13 -5 16 -2 14 12 -2 10 3 25 11 34 7 10 9 17 3 17 -5 0 -15 -7 -22 -15z"/>
<path d="M813 2395 c0 -8 4 -15 8 -15 12 0 -1 -33 -19 -47 -9 -7 -11 -13 -6
-13 6 0 15 5 22 12 9 9 12 8 12 -4 0 -9 -15 -28 -32 -43 -18 -15 -23 -22 -11
-16 32 16 66 63 52 71 -6 5 -8 17 -4 29 3 12 11 18 17 15 7 -4 8 -2 4 5 -4 6
-12 9 -17 6 -5 -4 -9 -1 -9 4 0 6 -4 11 -8 11 -5 0 -9 -7 -9 -15z"/>
<path d="M1910 2399 c0 -5 5 -7 12 -3 8 5 9 0 4 -17 -4 -13 -10 -37 -12 -54
-5 -27 -4 -28 7 -10 7 11 16 36 19 57 6 33 5 38 -11 38 -11 0 -19 -5 -19 -11z"/>
<path d="M380 2371 c0 -11 4 -22 10 -26 6 -4 6 -15 0 -31 -7 -17 -7 -23 0 -19
6 3 10 1 10 -5 0 -6 5 -8 10 -5 8 5 8 11 0 20 -13 16 -3 43 18 48 12 3 10 5
-5 6 -13 1 -23 7 -23 16 0 8 -4 15 -10 15 -5 0 -10 -9 -10 -19z"/>
<path d="M1650 2307 c0 -10 -3 -16 -7 -14 -13 7 -53 -11 -53 -24 0 -8 4 -9 13
0 8 6 17 8 20 4 4 -3 7 -1 7 6 0 7 4 10 8 7 15 -9 31 9 22 24 -8 13 -10 12
-10 -3z"/>
<path d="M2517 2296 c-25 -19 -21 -27 7 -16 17 6 26 5 30 -3 3 -8 5 -8 5 -1 2
22 -23 33 -42 20z"/>
<path d="M2628 2280 c-14 -16 -23 -30 -20 -30 10 0 25 12 46 38 29 34 4 26
-26 -8z"/>
<path d="M1854 2255 c3 -42 16 -62 27 -44 5 8 3 16 -3 20 -9 6 -8 12 2 23 7 9
10 19 7 23 -4 3 -10 -2 -14 -12 -6 -18 -7 -18 -14 1 -6 14 -7 11 -5 -11z"/>
<path d="M1991 2266 c-2 -18 23 -76 32 -76 5 0 7 6 4 14 -3 8 1 17 9 19 9 3 8
4 -3 3 -11 -1 -23 9 -30 24 -6 14 -12 21 -12 16z"/>
<path d="M647 2229 c-3 -12 -9 -19 -14 -16 -4 3 -9 -6 -9 -19 -1 -13 2 -24 7
-24 5 0 9 8 9 18 0 12 3 13 8 5 5 -8 8 1 9 22 1 40 -2 44 -10 14z"/>
<path d="M1447 2203 c-4 -6 -2 -13 5 -15 17 -6 0 -28 -22 -28 -10 0 -20 -7
-24 -15 -7 -19 11 -19 30 -1 7 8 19 16 26 18 9 3 10 10 2 28 -6 15 -13 20 -17
13z"/>
<path d="M362 2187 c-6 -6 -17 -32 -26 -57 -11 -35 -12 -41 -1 -27 7 10 22 25
32 34 16 13 16 14 1 9 -22 -7 -22 -2 -2 29 17 26 14 34 -4 12z"/>
<path d="M815 2192 c-6 -4 -12 -18 -12 -32 -2 -21 0 -23 10 -9 7 9 19 18 27
22 11 4 10 6 -5 6 -17 1 -17 3 -5 11 8 5 11 10 5 10 -5 0 -15 -4 -20 -8z"/>
<path d="M1345 2182 c-6 -4 -11 -20 -12 -37 -3 -29 -3 -29 7 -6 6 14 16 31 22
38 11 14 0 18 -17 5z"/>
<path d="M1221 2166 c-10 -12 -8 -13 11 -8 21 5 22 4 9 -12 -8 -9 -11 -19 -8
-22 8 -9 29 35 22 46 -9 14 -21 12 -34 -4z"/>
<path d="M1767 2158 c-2 -13 -8 -32 -12 -43 -7 -18 -6 -18 7 -5 18 18 32 70
19 70 -5 0 -11 -10 -14 -22z"/>
<path d="M509 2138 c-13 -18 -27 -34 -31 -36 -4 -2 -8 -8 -8 -14 0 -6 8 -4 18
5 10 10 22 14 27 10 4 -5 5 -2 1 5 -5 8 -1 21 10 33 9 10 15 22 12 25 -3 3
-16 -10 -29 -28z"/>
<path d="M1689 2134 c-12 -34 -4 -43 12 -12 6 12 17 26 23 30 7 5 4 8 -7 8
-10 0 -22 -11 -28 -26z"/>
<path d="M980 2125 c0 -9 -7 -15 -16 -13 -10 2 -19 -2 -21 -8 -2 -7 5 -10 22
-7 14 3 25 11 25 18 0 7 6 16 13 18 7 3 5 6 -5 6 -10 1 -18 -6 -18 -14z"/>
<path d="M660 2101 c0 -5 -20 -15 -45 -22 -28 -8 -45 -19 -45 -29 0 -11 2 -12
8 -3 4 7 17 14 27 17 46 10 65 19 65 32 0 8 -2 14 -5 14 -3 0 -5 -4 -5 -9z"/>
<path d="M1996 2092 c-4 -7 -2 -12 4 -12 7 0 10 -7 6 -15 -5 -14 -2 -13 24 0
36 19 39 29 6 21 -15 -4 -26 -1 -28 6 -3 9 -6 9 -12 0z"/>
<path d="M494 2064 c-14 -14 -18 -27 -13 -36 7 -10 9 -8 9 7 0 15 2 17 9 6 6
-9 11 -10 15 -2 4 6 2 11 -5 11 -8 0 -8 4 1 15 20 24 7 23 -16 -1z"/>
<path d="M244 2072 c-14 -9 -25 -52 -13 -52 4 0 6 -8 2 -17 -5 -15 -3 -14 10
2 10 13 12 25 7 36 -6 10 -5 20 2 27 13 13 9 16 -8 4z"/>
<path d="M411 2069 c-1 -9 -8 -22 -16 -29 -9 -7 -13 -21 -10 -31 4 -11 2 -19
-5 -19 -6 0 -8 -4 -5 -10 11 -17 25 -11 25 12 0 12 6 29 14 37 9 10 11 23 6
36 -7 15 -9 16 -9 4z"/>
<path d="M1836 2059 c-11 -10 -16 -22 -12 -26 4 -4 12 0 17 10 6 9 14 15 20
12 5 -4 9 1 9 9 0 21 -11 19 -34 -5z"/>
<path d="M1517 2063 c-4 -3 -7 -15 -7 -25 0 -10 -7 -21 -15 -24 -8 -4 -15 -11
-15 -16 0 -17 28 11 44 43 13 26 9 39 -7 22z"/>
<path d="M2554 2038 c1 -35 36 -66 36 -32 0 8 -5 12 -11 9 -6 -4 -10 -1 -8 6
3 24 -1 39 -9 39 -5 0 -8 -10 -8 -22z"/>
<path d="M76 2024 c-11 -8 -16 -14 -11 -14 4 0 0 -9 -10 -20 -16 -17 -16 -20
-3 -15 17 7 53 54 46 60 -2 2 -12 -3 -22 -11z"/>
<path d="M2822 2024 c-21 -14 -33 -72 -13 -60 5 3 7 15 4 27 -4 15 0 22 16 26
11 3 21 9 21 14 0 12 -2 12 -28 -7z"/>
<path d="M955 2010 c-19 -8 -19 -9 3 -9 19 -1 22 -5 17 -22 -5 -15 -4 -19 5
-14 6 4 10 16 7 26 -3 10 0 20 7 23 6 2 4 4 -4 5 -8 0 -24 -4 -35 -9z"/>
<path d="M2173 1992 c-37 -15 -77 -42 -62 -42 3 0 29 11 58 25 28 14 55 24 59
22 4 -3 16 -1 27 4 17 6 15 8 -10 8 -16 0 -49 -8 -72 -17z"/>
<path d="M2683 1998 c-13 -18 -14 -58 -1 -58 6 0 8 11 6 25 -4 17 0 29 11 35
9 5 11 10 5 10 -6 0 -16 -6 -21 -12z"/>
<path d="M1742 1981 c-11 -7 -11 -9 2 -14 9 -4 16 -14 16 -24 0 -14 2 -15 13
-4 9 10 9 15 0 18 -7 2 -9 11 -6 19 6 16 -5 18 -25 5z"/>
<path d="M55 1935 c-24 -21 -34 -35 -24 -35 8 0 24 8 35 18 11 10 25 17 31 15
6 -2 14 1 18 6 4 7 0 8 -11 4 -13 -5 -16 -3 -11 10 8 22 9 22 -38 -18z"/>
<path d="M2387 1936 c-4 -9 -14 -12 -25 -9 -11 2 -23 0 -26 -5 -4 -7 3 -9 16
-8 32 5 58 17 58 27 0 14 -17 10 -23 -5z"/>
<path d="M2503 1914 c-3 -8 -12 -13 -19 -10 -8 3 -14 -1 -14 -9 0 -12 5 -12
24 -3 26 11 43 38 25 38 -5 0 -12 -7 -16 -16z"/>
<path d="M624 1893 c-3 -10 -10 -26 -15 -35 -13 -26 -11 -32 6 -18 8 7 15 21
15 32 0 10 4 17 8 14 5 -3 9 1 9 9 0 21 -16 19 -23 -2z"/>
<path d="M1974 1902 c-6 -4 -13 -18 -16 -32 -3 -14 -9 -34 -13 -45 -7 -18 -6
-18 14 3 12 12 20 28 18 35 -2 7 0 20 5 30 10 19 8 20 -8 9z"/>
<path d="M1374 1866 c-3 -8 2 -29 11 -46 15 -30 15 -33 -2 -52 -18 -21 -18
-21 5 -9 23 12 31 56 11 63 -6 2 -11 16 -11 31 0 30 -6 35 -14 13z"/>
<path d="M733 1846 c0 -29 9 -33 26 -12 8 10 9 16 1 21 -5 3 -10 3 -10 -2 0
-4 -4 -2 -9 6 -6 9 -8 5 -8 -13z"/>
<path d="M202 1841 c-21 -13 31 -23 60 -12 22 10 23 10 1 10 -12 1 -27 3 -35
6 -7 3 -19 1 -26 -4z"/>
<path d="M656 1804 c-3 -8 -2 -12 3 -9 20 11 20 -14 1 -28 -11 -7 -21 -22 -23
-33 -1 -10 -6 -25 -11 -33 -6 -9 -5 -12 4 -9 8 2 18 17 23 34 5 16 18 38 28
49 18 20 18 21 0 32 -16 10 -20 9 -25 -3z"/>
<path d="M1740 1807 c0 -8 -6 -18 -12 -21 -10 -5 -10 -7 0 -12 6 -3 10 -10 6
-15 -3 -5 0 -9 6 -9 7 0 9 7 6 16 -4 11 1 18 14 21 11 3 20 10 20 16 0 6 -3 7
-7 4 -3 -4 -12 -2 -20 4 -10 9 -13 8 -13 -4z"/>
<path d="M2162 1808 c-7 -7 -12 -20 -12 -29 0 -9 -7 -19 -15 -23 -8 -3 -12
-12 -9 -20 5 -13 9 -12 24 6 10 12 15 28 13 35 -3 7 0 20 7 28 15 18 9 20 -8
3z"/>
<path d="M380 1787 c0 -4 -6 -5 -12 -1 -10 5 -10 4 -2 -5 13 -14 46 -11 51 4
2 6 -6 11 -17 11 -11 0 -20 -4 -20 -9z"/>
<path d="M287 1783 c-4 -6 -16 -9 -27 -6 -13 4 -20 0 -20 -10 0 -10 9 -14 28
-13 29 3 36 9 30 28 -3 9 -6 9 -11 1z"/>
<path d="M1446 1777 c-16 -12 -16 -15 -3 -26 13 -10 16 -8 22 9 9 28 3 33 -19
17z"/>
<path d="M2585 1750 c3 -5 0 -10 -8 -10 -8 0 -22 -9 -32 -20 -10 -11 -13 -20
-8 -20 6 0 13 7 17 15 3 8 15 15 26 15 11 0 20 7 20 15 0 8 -5 15 -11 15 -5 0
-7 -4 -4 -10z"/>
<path d="M499 1725 c-1 -6 -1 -14 0 -19 1 -4 -5 -13 -13 -20 -8 -6 -17 -22
-21 -36 -5 -18 1 -14 25 19 23 31 29 46 21 54 -6 6 -12 7 -12 2z"/>
<path d="M1388 1698 c-37 -43 -36 -56 2 -18 17 17 30 35 30 40 0 15 -2 13 -32
-22z"/>
<path d="M1861 1640 c-36 -38 -69 -77 -74 -87 -6 -10 -14 -20 -18 -23 -4 -3
-12 -17 -17 -30 l-10 -25 -7 28 -7 28 -24 -22 c-19 -17 -26 -20 -38 -10 -12
10 -13 6 -9 -31 8 -60 5 -98 -7 -113 -5 -6 -7 -14 -4 -18 3 -3 -9 -13 -27 -22
-29 -16 -31 -16 -26 -1 4 9 14 42 23 74 9 31 21 63 26 70 6 6 9 12 7 13 -48 9
-69 0 -82 -34 -4 -9 -15 -20 -24 -24 -24 -9 -40 -29 -63 -78 -21 -46 -86 -115
-107 -115 -8 0 -12 -4 -9 -9 7 -11 -54 -51 -78 -51 -9 0 -16 5 -16 11 0 6 9 8
20 4 16 -5 19 -3 13 12 -3 10 -3 15 2 11 10 -9 25 7 58 59 14 23 31 44 37 48
16 10 12 55 -6 62 -11 4 -23 -2 -35 -18 -50 -68 -48 -67 -55 -41 -13 44 -41
28 -117 -70 -16 -20 -17 -20 -11 -3 18 53 25 118 15 147 -6 17 -11 49 -11 70
0 35 3 39 21 36 24 -3 35 -18 44 -60 3 -16 12 -28 20 -28 8 0 15 -8 15 -17 0
-22 10 -11 15 17 2 12 -2 35 -10 50 -8 15 -12 30 -9 32 3 3 -8 16 -24 30 -19
16 -40 23 -68 23 l-39 0 -9 -52 c-7 -42 -5 -59 9 -89 14 -31 16 -45 7 -90 -12
-57 -76 -194 -92 -194 -5 0 -16 -13 -26 -29 -17 -29 -126 -88 -153 -82 -7 1
-10 -2 -6 -8 3 -7 0 -8 -9 -5 -9 3 -16 2 -16 -4 0 -9 -31 -23 -57 -26 -6 -1
-15 -5 -20 -10 -5 -5 -2 -6 6 -1 9 5 12 4 7 -3 -4 -6 -13 -9 -20 -6 -8 3 -23
-4 -34 -16 -11 -12 -25 -19 -31 -16 -12 8 -30 -24 -24 -41 6 -15 45 -17 59 -3
5 5 36 19 69 30 60 20 231 117 271 152 19 17 22 17 27 4 4 -9 13 -16 20 -16
23 0 74 29 108 61 21 20 35 26 43 20 8 -7 32 5 76 40 35 27 69 49 77 49 7 0
45 17 85 37 40 20 85 42 100 50 14 7 33 13 41 13 8 0 20 7 27 15 7 8 20 15 30
15 10 0 23 7 30 15 15 19 47 21 33 3 -19 -24 -44 -123 -39 -152 7 -41 35 -68
60 -60 34 11 77 45 70 56 -4 5 -15 1 -28 -11 -28 -27 -52 -27 -66 -1 -19 36
35 210 65 210 8 0 26 7 42 15 32 18 275 112 376 146 69 23 94 48 35 34 -18 -4
-43 -8 -55 -9 -13 -1 -23 -4 -23 -8 0 -9 -66 -38 -84 -38 -6 1 0 7 14 15 14 8
21 14 15 14 -17 0 -54 -24 -53 -34 1 -5 -7 -12 -16 -13 -13 -3 -16 0 -11 8 5
8 3 11 -4 9 -7 -3 -12 -8 -11 -13 3 -16 -25 -26 -54 -20 -18 4 -26 2 -22 -4 7
-11 -10 -27 -39 -34 -11 -3 -29 -9 -39 -14 -14 -5 -17 -4 -12 4 5 8 2 10 -8 6
-9 -3 -14 -10 -11 -15 5 -7 -25 -29 -39 -29 -7 0 1 25 31 90 43 93 75 164 84
188 17 45 -25 22 -90 -48z m9 -57 c-16 -38 -38 -86 -49 -108 -12 -21 -21 -45
-21 -52 0 -17 -40 -53 -59 -53 -12 0 -12 3 -3 12 7 7 12 21 12 33 0 38 122
233 147 235 1 0 -11 -30 -27 -67z m-158 -180 c-22 -62 -33 -52 -20 17 15 72
18 78 29 57 8 -13 5 -33 -9 -74z m-112 22 c-4 -20 -12 -41 -18 -48 -5 -7 -13
-27 -17 -44 -3 -18 -11 -33 -17 -33 -6 0 -8 -3 -5 -7 9 -8 -23 -32 -43 -33
-12 0 -13 2 -1 9 7 5 14 21 15 37 1 16 16 49 33 73 18 23 35 52 38 62 11 34
23 20 15 -16z m-220 -125 c0 -5 -3 -10 -8 -10 -4 0 -16 -16 -26 -35 -18 -32
-36 -46 -36 -27 0 7 25 46 45 69 12 15 25 16 25 3z m-90 -30 c0 -24 -25 -66
-58 -98 -29 -28 -82 -56 -82 -43 0 11 33 61 65 100 54 66 75 77 75 41z m-151
-176 c-13 -16 -49 -19 -49 -4 0 6 4 10 8 10 5 0 15 12 22 28 l12 27 9 -24 c6
-15 5 -28 -2 -37z m51 -9 c-7 -8 -22 -15 -34 -15 -21 1 -21 1 -2 15 27 21 53
20 36 0z"/>
<path d="M100 1689 c-12 -8 -12 -12 -2 -16 6 -2 10 -9 6 -14 -3 -5 -1 -9 4 -9
12 0 23 38 13 44 -4 3 -13 0 -21 -5z"/>
<path d="M1727 1685 c-10 -7 -19 -19 -21 -27 -1 -7 -5 -19 -10 -26 -9 -15 10
-42 29 -42 20 0 45 35 45 62 0 35 -20 50 -43 33z"/>
<path d="M2151 1690 c-2 -21 -67 -90 -77 -82 -4 4 -4 2 -1 -5 4 -6 1 -14 -5
-16 -10 -4 -9 -6 1 -6 7 -1 24 9 35 22 12 12 30 27 40 32 13 7 17 19 13 40 -2
17 -5 23 -6 15z"/>
<path d="M1261 1677 c-6 -6 -17 -12 -23 -12 -6 0 -13 -5 -15 -12 -5 -15 33 -5
48 13 15 18 7 28 -10 11z"/>
<path d="M869 1641 c-16 -27 -16 -28 2 -24 25 7 32 19 22 37 -7 12 -12 9 -24
-13z"/>
<path d="M2025 1642 c-8 -23 -6 -23 25 -7 17 9 30 18 30 20 0 11 -50 -1 -55
-13z"/>
<path d="M687 1618 c-12 -9 -14 -17 -7 -28 9 -13 10 -13 10 1 0 8 12 20 28 26
23 9 24 11 6 12 -11 1 -28 -5 -37 -11z"/>
<path d="M452 1574 c-10 -19 -5 -54 9 -54 5 0 9 7 9 15 0 8 -5 15 -11 15 -8 0
-7 5 1 15 7 9 10 18 7 21 -3 3 -9 -2 -15 -12z"/>
<path d="M323 1536 c-4 -5 3 -7 15 -4 13 4 22 1 24 -8 2 -11 6 -9 16 6 12 19
10 20 -19 18 -17 -1 -33 -7 -36 -12z"/>
<path d="M160 1525 c0 -8 -7 -15 -15 -15 -8 0 -15 -2 -15 -4 0 -2 -3 -11 -6
-20 -5 -14 -3 -14 24 0 22 11 29 20 25 34 -6 24 -13 26 -13 5z"/>
<path d="M199 1538 c-8 -29 -6 -59 4 -55 14 4 19 57 6 57 -5 0 -9 -1 -10 -2z"/>
<path d="M250 1435 l-23 -12 26 -5 c18 -3 24 -1 20 8 -3 9 2 11 16 7 12 -3 21
-3 21 0 0 12 -39 13 -60 2z"/>
<path d="M408 1413 c-19 -5 -31 -30 -18 -38 15 -10 12 -25 -6 -25 -8 0 -12 -5
-9 -10 8 -13 22 -5 36 22 8 15 8 19 0 14 -21 -13 -11 13 11 28 22 16 19 18
-14 9z"/>
<path d="M260 1330 c-28 -23 -31 -28 -12 -23 12 3 22 10 22 15 0 5 8 7 18 4 9
-3 24 -1 32 4 13 8 13 10 -2 10 -9 0 -18 4 -20 9 -1 6 -19 -3 -38 -19z"/>
<path d="M2005 1340 c-4 -6 -13 -9 -20 -6 -7 2 -16 -2 -19 -10 -7 -18 4 -18
31 1 16 11 22 12 26 2 2 -6 7 -9 11 -6 4 3 0 12 -8 18 -10 9 -16 9 -21 1z"/>
<path d="M2073 1303 c4 -3 -1 -15 -10 -26 -10 -10 -17 -21 -15 -23 1 -2 2 -7
1 -11 -1 -5 -4 3 -8 17 l-7 25 -6 -27 c-3 -15 -1 -25 3 -22 5 3 9 0 9 -7 0 -8
4 -8 15 1 9 7 14 19 11 26 -3 8 4 18 15 24 20 11 18 30 -3 30 -6 0 -8 -3 -5
-7z"/>
<path d="M2518 1281 c-31 -18 -37 -41 -12 -41 10 0 14 6 10 15 -3 9 0 15 9 15
13 0 31 18 24 24 -2 2 -16 -4 -31 -13z"/>
<path d="M476 1248 c-8 -5 -13 -15 -10 -23 4 -8 10 -12 15 -9 5 3 7 10 4 15
-4 5 1 9 9 9 8 0 17 4 20 8 7 11 -18 11 -38 0z"/>
<path d="M226 1173 c-36 -39 -22 -43 17 -5 17 18 26 32 20 32 -7 0 -23 -12
-37 -27z"/>
<path d="M2375 1143 c-14 -11 -15 -14 -3 -10 24 8 30 -4 12 -24 -8 -9 -11 -20
-6 -23 13 -8 31 35 23 56 -5 15 -8 15 -26 1z"/>
<path d="M2289 1063 c-12 -14 -12 -15 0 -9 8 5 17 3 22 -5 7 -11 9 -11 9 -1 0
7 5 10 10 7 6 -3 10 1 10 9 0 21 -34 20 -51 -1z"/>
<path d="M276 1055 c4 -9 0 -15 -9 -15 -8 0 -18 -7 -21 -16 -10 -26 -7 -28 14
-9 19 18 20 17 20 -4 0 -12 4 -20 8 -17 5 3 8 15 6 28 -1 13 -3 29 -3 36 -1 6
-5 12 -11 12 -5 0 -7 -7 -4 -15z"/>
<path d="M1543 1017 c7 -19 -63 -53 -73 -37 -5 8 -9 7 -13 -4 -4 -9 -13 -16
-22 -16 -8 0 -15 -5 -15 -11 0 -6 6 -9 13 -6 6 3 32 13 57 22 25 10 53 26 63
35 17 16 17 18 2 24 -12 4 -16 2 -12 -7z"/>
<path d="M590 1002 c0 -7 -6 -12 -13 -12 -7 0 -22 -7 -33 -15 -18 -14 -18 -14
5 -10 28 5 58 31 48 41 -4 4 -7 2 -7 -4z"/>
<path d="M2263 1003 c-15 -5 -18 -63 -4 -63 5 0 7 8 4 19 -2 10 3 25 12 35 16
16 12 19 -12 9z"/>
<path d="M670 960 c-13 -16 -27 -27 -32 -24 -4 3 -8 0 -8 -5 0 -18 20 -12 45
13 13 13 26 21 29 18 3 -3 6 0 6 6 0 23 -17 20 -40 -8z"/>
<path d="M438 948 c-16 -5 -28 -14 -28 -19 0 -5 12 -6 28 -3 32 8 35 10 31 22
-3 5 -15 5 -31 0z"/>
<path d="M1070 942 c0 -13 -3 -21 -7 -19 -5 3 -9 -9 -10 -26 -2 -26 0 -29 8
-15 5 10 10 21 10 25 0 5 5 13 9 18 5 6 5 17 0 25 -8 12 -10 10 -10 -8z"/>
<path d="M518 929 c-10 -5 -18 -19 -18 -29 0 -11 -6 -20 -14 -20 -7 0 -18 -6
-25 -13 -8 -11 -5 -13 17 -9 21 3 28 10 30 29 1 14 10 32 20 39 20 16 14 18
-10 3z"/>
<path d="M571 915 c0 -12 -6 -26 -12 -32 -26 -26 -2 -26 25 0 16 15 22 25 13
22 -10 -4 -17 0 -20 12 -4 16 -5 15 -6 -2z"/>
<path d="M981 898 c-11 -11 -17 -26 -14 -31 6 -10 43 27 43 44 0 14 -8 11 -29
-13z"/>
<path d="M1338 873 c-3 -13 -1 -24 5 -26 8 -2 5 -10 -6 -21 -10 -10 -24 -15
-32 -12 -8 3 -17 0 -21 -6 -5 -7 -2 -8 6 -3 10 6 12 4 7 -10 -7 -17 -6 -17 20
0 29 19 52 44 53 58 0 5 -4 6 -9 2 -5 -3 -11 5 -13 17 l-3 23 -7 -22z"/>
<path d="M1009 800 c-8 -9 -19 -25 -23 -36 -6 -15 -3 -15 18 5 l26 24 0 -23
c0 -23 0 -23 21 4 12 15 19 30 15 33 -3 3 -8 -2 -12 -11 -3 -9 -10 -13 -15
-10 -5 3 -7 9 -4 14 10 17 -10 17 -26 0z"/>
<path d="M2585 787 c-20 -20 -20 -20 3 -14 18 4 22 2 18 -9 -3 -8 1 -14 9 -14
9 0 12 6 9 15 -4 8 -1 22 6 30 9 10 9 15 1 15 -6 0 -11 -6 -11 -12 0 -9 -3
-10 -8 -2 -5 7 -13 5 -27 -9z"/>
<path d="M245 760 c-40 -42 -28 -45 15 -4 19 19 30 34 24 34 -5 0 -23 -13 -39
-30z"/>
<path d="M700 684 c-13 -34 -13 -39 4 -25 17 14 28 51 15 51 -5 0 -14 -12 -19
-26z"/>
<path d="M1296 685 c-4 -14 -13 -25 -22 -25 -8 0 -12 -4 -9 -10 9 -15 43 11
48 37 6 31 -9 29 -17 -2z"/>
<path d="M950 644 c-8 -3 -21 -16 -27 -31 l-13 -26 28 24 c15 13 31 27 37 31
10 8 2 9 -25 2z"/>
<path d="M2056 629 c-7 -23 -8 -23 -16 -4 -8 19 -9 19 -9 -3 -1 -20 3 -22 22
-16 30 9 30 10 19 29 -8 15 -10 14 -16 -6z"/>
<path d="M2191 632 c-1 -7 -5 -10 -11 -7 -6 4 -10 -9 -10 -32 l1 -38 15 34 c8
19 12 39 10 45 -3 6 -5 5 -5 -2z"/>
<path d="M149 623 c-1 -5 -1 -17 0 -29 1 -11 -8 -33 -20 -49 -15 -18 -18 -26
-8 -23 8 2 19 13 24 24 6 10 17 19 25 19 8 0 15 8 16 18 1 12 1 13 -3 2 -8
-28 -25 -16 -21 15 3 17 1 30 -4 30 -4 0 -8 -3 -9 -7z"/>
<path d="M2692 578 c-8 -8 -7 -15 4 -25 8 -8 12 -19 9 -24 -4 -5 -2 -9 4 -9 5
0 8 14 6 31 -5 38 -8 42 -23 27z"/>
<path d="M1657 553 c-4 -3 -7 -17 -7 -30 0 -24 0 -24 25 -6 13 10 25 22 25 28
0 5 -5 4 -12 -3 -17 -17 -29 -15 -22 3 6 16 2 20 -9 8z"/>
<path d="M767 453 c-13 -12 -7 -23 14 -23 11 0 17 -4 14 -10 -3 -5 -2 -10 4
-10 24 0 19 20 -6 26 -25 7 -25 8 -8 15 15 6 16 8 4 8 -9 1 -19 -2 -22 -6z"/>
<path d="M316 439 c-8 -26 -16 -79 -11 -79 7 0 27 82 21 87 -3 3 -7 0 -10 -8z"/>
<path d="M1321 417 c-11 -19 -21 -37 -21 -40 0 -8 40 4 46 14 3 5 -3 6 -13 2
-17 -7 -17 -6 0 21 10 15 17 30 14 32 -3 3 -14 -10 -26 -29z"/>
<path d="M1206 409 c-32 -38 -33 -54 -4 -38 15 8 19 14 10 17 -10 3 -7 11 9
28 12 13 20 24 17 24 -4 0 -18 -14 -32 -31z"/>
<path d="M1380 415 c-21 -25 -3 -29 26 -6 24 19 25 21 7 21 -11 0 -26 -7 -33
-15z"/>
<path d="M2932 404 c-12 -8 -22 -20 -22 -26 0 -6 7 -5 18 4 9 9 23 13 30 11 8
-3 10 1 6 11 -7 19 -5 19 -32 0z"/>
<path d="M207 345 c-20 -14 -37 -28 -37 -30 0 -12 18 -3 50 25 43 37 37 39
-13 5z"/>
<path d="M1166 334 c-11 -8 -28 -14 -38 -14 -10 0 -18 -4 -18 -9 0 -12 52 0
69 16 19 19 10 24 -13 7z"/>
<path d="M518 283 c13 -3 27 -15 32 -29 7 -17 14 -22 27 -17 14 5 14 8 2 11
-7 3 -20 13 -27 24 -7 10 -23 17 -35 17 -21 -2 -21 -2 1 -6z"/>
<path d="M1746 245 c-4 -19 -11 -35 -16 -35 -6 0 -10 -5 -10 -10 0 -17 36 11
36 29 1 9 4 24 9 34 4 9 3 17 -3 17 -5 0 -13 -16 -16 -35z"/>
<path d="M1622 204 c-17 -20 -18 -25 -6 -20 10 4 21 1 25 -6 7 -10 11 -10 21
0 11 11 10 13 -2 10 -10 -2 -14 4 -13 20 3 27 3 27 -25 -4z"/>
<path d="M256 184 c-12 -18 -24 -24 -37 -21 -10 3 -17 1 -13 -4 10 -18 44 -9
60 16 9 14 14 28 12 31 -3 2 -13 -7 -22 -22z"/>
<path d="M633 178 c-30 -34 -34 -45 -18 -51 9 -4 12 -1 9 8 -7 17 23 51 51 58
19 5 19 5 -1 6 -11 0 -30 -9 -41 -21z"/>
<path d="M2260 192 c0 -6 -9 -14 -20 -17 -21 -7 -27 -39 -10 -50 6 -3 10 4 10
16 0 12 8 28 17 35 10 7 15 16 10 20 -4 4 -7 2 -7 -4z"/>
<path d="M2858 168 c-16 -5 -28 -17 -28 -27 0 -9 -5 -22 -11 -28 -9 -9 -6 -10
10 -6 16 4 20 11 16 24 -4 11 -2 19 2 19 5 0 18 7 29 15 22 17 19 17 -18 3z"/>
<path d="M268 135 c-22 -29 -22 -35 -3 -35 8 0 15 9 15 20 0 11 5 20 10 20 6
0 10 5 10 10 0 17 -14 11 -32 -15z"/>
<path d="M1675 130 c8 -13 -14 -42 -26 -34 -5 3 -9 -2 -9 -10 0 -22 8 -20 31
7 20 25 25 47 8 47 -5 0 -7 -5 -4 -10z"/>
<path d="M816 85 c-4 -19 -11 -35 -15 -35 -5 0 -12 -7 -15 -15 -5 -13 -2 -13
17 2 15 11 24 29 25 50 3 43 -4 42 -12 -2z"/>
<path d="M325 80 c-19 -7 -19 -8 -2 -15 12 -5 24 -2 35 9 13 13 14 16 2 15 -8
0 -24 -4 -35 -9z"/>
</g>
</svg>
